<svg width="170" height="59" viewBox="0 0 170 59" fill="none" xmlns="http://www.w3.org/2000/svg">
<rect y="0.714844" width="170" height="58" rx="6" fill="#1A1A1A"/>
<mask id="mask0_12630_268338" style="mask-type:alpha" maskUnits="userSpaceOnUse" x="0" y="0" width="170" height="59">
<rect y="0.714844" width="170" height="58" rx="6" fill="white"/>
</mask>
<g mask="url(#mask0_12630_268338)">
<path fill-rule="evenodd" clip-rule="evenodd" d="M32.5553 17.7929C33.6407 16.4355 34.3834 14.5888 34.1772 12.7148C32.6062 12.7844 30.6416 13.8015 29.5102 15.1291C28.5093 16.2989 27.6151 18.2164 27.8461 20.0196C29.6108 20.1512 31.4227 19.1291 32.5553 17.7929ZM36.5293 29.5634C36.4936 25.5908 39.7573 23.6428 39.9542 23.5253L39.9582 23.5229C38.0817 20.7871 35.1732 20.4132 34.1511 20.3834C32.6567 20.2262 31.1896 20.8084 29.9909 21.2842C29.2302 21.5861 28.5776 21.8451 28.0945 21.8451C27.5445 21.8451 26.873 21.5753 26.1205 21.273C25.1366 20.8776 24.0141 20.4266 22.8438 20.4505C20.1862 20.4915 17.7 22.0302 16.3364 24.4195C13.5223 29.2914 15.6211 36.4509 18.3172 40.3889C19.6659 42.3187 21.2418 44.4709 23.3046 44.3952C24.2407 44.3571 24.9048 44.0775 25.5909 43.7887C26.3838 43.4548 27.2062 43.1086 28.5118 43.1086C29.7433 43.1086 30.5307 43.4437 31.2862 43.7653C32.0109 44.0738 32.7063 44.3698 33.7363 44.3455C35.9022 44.3132 37.2658 42.4094 38.5672 40.4621C40.1258 38.2541 40.7517 36.0746 40.7766 35.9628C40.7269 35.9467 36.5716 34.3608 36.5293 29.5634ZM54.8938 13.7844H51.9785V22.4582H54.8938C57.4725 22.4582 58.9872 20.8532 58.9872 18.1183C58.9872 15.3893 57.4665 13.7844 54.8938 13.7844ZM53.0607 14.7582V21.4844H54.8219C56.7875 21.4844 57.8815 20.2822 57.8815 18.1303C57.8815 15.9604 56.7935 14.7582 54.8219 14.7582H53.0607ZM60.2694 19.3325C60.2694 21.3221 61.4355 22.5663 63.1667 22.5663C64.8918 22.5663 66.0579 21.3221 66.0579 19.3325C66.0579 17.3369 64.8918 16.0986 63.1667 16.0986C61.4355 16.0986 60.2694 17.3369 60.2694 19.3325ZM63.1663 21.6467C64.2723 21.6467 64.9936 20.8051 64.9936 19.3325C64.9936 17.8598 64.2723 17.0183 63.1663 17.0183C62.0603 17.0183 61.333 17.8598 61.333 19.3325C61.333 20.8051 62.0603 21.6467 63.1663 21.6467ZM73.729 22.4581L75.4721 16.2068H74.4383L73.188 21.292H73.1639L71.7454 16.2068H70.7355L69.323 21.292H69.2989L68.0487 16.2068H67.0088L68.758 22.4581H69.8219L71.2284 17.6193H71.2525L72.665 22.4581H73.729ZM76.7365 16.2068H77.7223V17.2046H77.7463C78.0949 16.5314 78.7621 16.0986 79.7299 16.0986C81.1004 16.0986 81.8938 16.9822 81.8938 18.4008V22.4581H80.8479V18.5871C80.8479 17.5773 80.3731 17.0243 79.4113 17.0243C78.4255 17.0243 77.7824 17.7215 77.7824 18.7795V22.4581H76.7365V16.2068ZM83.6867 13.7844V22.4581H84.7326V13.7844H83.6867ZM89.1462 22.5663C87.415 22.5663 86.2489 21.3221 86.2489 19.3325C86.2489 17.3369 87.415 16.0986 89.1462 16.0986C90.8713 16.0986 92.0374 17.3369 92.0374 19.3325C92.0374 21.3221 90.8713 22.5663 89.1462 22.5663ZM90.9731 19.3325C90.9731 20.8051 90.2518 21.6467 89.1458 21.6467C88.0398 21.6467 87.3125 20.8051 87.3125 19.3325C87.3125 17.8598 88.0398 17.0183 89.1458 17.0183C90.2518 17.0183 90.9731 17.8598 90.9731 19.3325ZM95.327 22.5663C94.0827 22.5663 93.2472 21.815 93.2472 20.6909C93.2472 19.621 94.0707 18.9478 95.5133 18.8636L97.3046 18.7614V18.2385C97.3046 17.4751 96.7997 17.0183 95.9341 17.0183C95.1286 17.0183 94.6237 17.397 94.4915 18.0101H93.4816C93.5538 16.9281 94.4794 16.0986 95.9581 16.0986C97.4248 16.0986 98.3505 16.892 98.3505 18.1363V22.4581H97.3587V21.3822H97.3346C96.9619 22.0975 96.1685 22.5663 95.327 22.5663ZM97.305 20.0838C97.305 20.9855 96.5476 21.6767 95.5618 21.6767C94.8104 21.6767 94.3115 21.286 94.3115 20.6909C94.3115 20.1019 94.7924 19.7292 95.6339 19.6751L97.305 19.5729V20.0838ZM102.457 22.5663C100.864 22.5663 99.7822 21.292 99.7822 19.3325C99.7822 17.3729 100.858 16.0986 102.433 16.0986C103.329 16.0986 104.05 16.5374 104.423 17.2227H104.447V13.7844H105.493V22.4582H104.495V21.4002H104.477C104.074 22.1215 103.359 22.5663 102.457 22.5663ZM100.853 19.3325C100.853 17.9199 101.55 17.0183 102.656 17.0183C103.732 17.0183 104.453 17.9379 104.453 19.3325C104.453 20.733 103.732 21.6467 102.656 21.6467C101.55 21.6467 100.853 20.751 100.853 19.3325ZM112.842 22.5663C111.11 22.5663 109.944 21.3221 109.944 19.3325C109.944 17.3369 111.11 16.0986 112.842 16.0986C114.567 16.0986 115.733 17.3369 115.733 19.3325C115.733 21.3221 114.567 22.5663 112.842 22.5663ZM114.668 19.3325C114.668 20.8051 113.947 21.6467 112.841 21.6467C111.735 21.6467 111.008 20.8051 111.008 19.3325C111.008 17.8598 111.735 17.0183 112.841 17.0183C113.947 17.0183 114.668 17.8598 114.668 19.3325ZM117.195 22.4581V16.2068H118.181V17.2046H118.205C118.554 16.5314 119.221 16.0986 120.189 16.0986C121.559 16.0986 122.353 16.9822 122.353 18.4008V22.4581H121.307V18.5871C121.307 17.5773 120.832 17.0243 119.87 17.0243C118.884 17.0243 118.241 17.7215 118.241 18.7795V22.4581H117.195ZM128.408 14.6981H127.362V16.2068H126.431V17.0664H127.362V20.8352C127.362 22.0374 127.807 22.5062 128.955 22.5062C129.202 22.5062 129.49 22.4882 129.616 22.4581V21.5805C129.544 21.5926 129.304 21.6106 129.184 21.6106C128.649 21.6106 128.408 21.3521 128.408 20.7811V17.0664H129.622V16.2068H128.408V14.6981ZM131.199 22.4581V13.7844H132.245V17.2046H132.269C132.618 16.5073 133.303 16.0986 134.253 16.0986C135.623 16.0986 136.453 17.0243 136.453 18.4188V22.4581H135.407V18.6112C135.407 17.6194 134.908 17.0243 133.928 17.0243C132.888 17.0243 132.245 17.7336 132.245 18.8155V22.4581H131.199ZM143.367 20.6669H142.339C142.165 21.256 141.582 21.6587 140.788 21.6587C139.664 21.6587 138.961 20.8713 138.961 19.6751V19.615H143.445V19.2183C143.445 17.3248 142.405 16.0986 140.716 16.0986C138.991 16.0986 137.885 17.415 137.885 19.3565C137.885 21.3221 138.973 22.5663 140.764 22.5663C142.129 22.5663 143.187 21.7609 143.367 20.6669ZM140.698 17.0063C139.718 17.0063 139.033 17.7576 138.967 18.7975H142.363C142.339 17.7516 141.684 17.0063 140.698 17.0063ZM60.5926 39.246L62.1074 43.7214H64.827L58.8484 27.1625H56.0713L50.0927 43.7214H52.7664L54.2812 39.246H60.5926ZM57.4027 29.9166L54.9355 37.1805H59.9388L57.4716 29.9166H57.4027ZM78.2852 37.6854C78.2852 33.8641 76.2655 31.4543 73.2016 31.4543C71.4573 31.4543 70.0688 32.3379 69.3573 33.7264H69.3114V31.6493H66.9131V47.7148H69.3918V41.7362H69.4491C70.1377 43.0788 71.5147 43.928 73.2475 43.928C76.277 43.928 78.2852 41.5067 78.2852 37.6854ZM72.5472 41.828C74.5095 41.828 75.7373 40.2214 75.7373 37.6854C75.7373 35.1608 74.5095 33.5428 72.5472 33.5428C70.6538 33.5428 69.38 35.1952 69.38 37.6854C69.38 40.1985 70.6423 41.828 72.5472 41.828ZM92.1211 37.6854C92.1211 33.8641 90.1014 31.4543 87.0375 31.4543C85.2933 31.4543 83.9047 32.3379 83.1933 33.7264H83.1474V31.6493H80.749V47.7148H83.2277V41.7362H83.2851C83.9736 43.0788 85.3506 43.928 87.0834 43.928C90.1129 43.928 92.1211 41.5067 92.1211 37.6854ZM86.384 41.828C88.3463 41.828 89.5741 40.2214 89.5741 37.6854C89.5741 35.1608 88.3463 33.5428 86.384 33.5428C84.4906 33.5428 83.2168 35.1952 83.2168 37.6854C83.2168 40.1985 84.4791 41.828 86.384 41.828ZM102.008 39.1083H99.4717C99.6323 42.1034 102.111 43.9968 105.783 43.9968C109.708 43.9968 112.175 42.0575 112.175 38.9591C112.175 36.5378 110.763 35.1723 107.367 34.369L105.542 33.9215C103.408 33.3936 102.536 32.7051 102.536 31.5346C102.536 30.0658 103.901 29.0559 105.898 29.0559C107.895 29.0559 109.26 30.0543 109.409 31.7067H111.911C111.831 28.8494 109.432 26.8871 105.932 26.8871C102.398 26.8871 99.9077 28.8494 99.9077 31.7067C99.9077 34.0133 101.319 35.4362 104.36 36.1706L106.506 36.687C108.652 37.2149 109.558 37.9837 109.558 39.269C109.558 40.7493 108.055 41.828 105.967 41.828C103.786 41.828 102.191 40.7493 102.008 39.1083ZM115.466 28.792H117.956V31.6493H120.251V33.6116H117.956V40.2673C117.956 41.3116 118.415 41.7821 119.425 41.7821C119.677 41.7821 120.079 41.7591 120.239 41.7247V43.687C119.964 43.7558 119.413 43.8017 118.862 43.8017C116.418 43.8017 115.466 42.8722 115.466 40.5427V33.6116H113.71V31.6493H115.466V28.792ZM122.016 37.6854C122.016 41.5755 124.288 43.9509 127.742 43.9509C131.196 43.9509 133.468 41.5755 133.468 37.6854C133.468 33.8067 131.184 31.4313 127.742 31.4313C124.299 31.4313 122.016 33.8067 122.016 37.6854ZM127.741 41.9083C129.692 41.9083 130.943 40.3706 130.943 37.6854C130.943 35.0116 129.681 33.4739 127.741 33.4739C125.802 33.4739 124.54 35.0116 124.54 37.6854C124.54 40.3706 125.802 41.9083 127.741 41.9083ZM138.307 31.6493H135.943V43.7214H138.422V36.4919C138.422 34.7821 139.409 33.7149 141.004 33.7149C141.486 33.7149 141.922 33.7723 142.117 33.8526V31.5461C141.933 31.5116 141.624 31.4543 141.268 31.4543C139.845 31.4543 138.766 32.292 138.365 33.7034H138.307V31.6493ZM152.212 40.1755H154.565C154.221 42.3788 152.132 43.9509 149.367 43.9509C145.821 43.9509 143.675 41.5526 143.675 37.7427C143.675 33.9559 145.855 31.4313 149.263 31.4313C152.614 31.4313 154.703 33.7952 154.703 37.4559V38.305H146.176V38.4542C146.176 40.5542 147.439 41.9427 149.424 41.9427C150.835 41.9427 151.88 41.2313 152.212 40.1755ZM146.188 36.5723C146.315 34.7477 147.531 33.428 149.264 33.428C150.997 33.428 152.167 34.7247 152.224 36.5723H146.188Z" fill="#FEFEFE"/>
</g>
</svg>
