<svg width="170" height="59" viewBox="0 0 170 59" fill="none" xmlns="http://www.w3.org/2000/svg">
<rect y="0.714844" width="170" height="58" rx="6" fill="#1A1A1A"/>
<mask id="mask0_12630_268339" style="mask-type:alpha" maskUnits="userSpaceOnUse" x="0" y="0" width="170" height="59">
<rect y="0.714844" width="170" height="58" rx="6" fill="white"/>
</mask>
<g mask="url(#mask0_12630_268339)">
<path fill-rule="evenodd" clip-rule="evenodd" d="M52.2577 16.1687H48.7772V17.2014H51.2458C51.1237 18.6498 49.9188 19.2675 48.7815 19.2675C47.3263 19.2675 46.0565 18.1226 46.0565 16.5178C46.0565 14.9545 47.2669 13.7507 48.7845 13.7507C49.9557 13.7507 50.6456 14.497 50.6456 14.497L51.3687 13.7481C51.3687 13.7481 50.4405 12.7148 48.7476 12.7148C46.592 12.7148 44.9245 14.5342 44.9245 16.4992C44.9245 18.425 46.4931 20.3025 48.8025 20.3025C50.8339 20.3025 52.3208 18.9112 52.3208 16.8535C52.3208 16.4194 52.2577 16.1685 52.2577 16.1685V16.1687ZM52.9134 32.8144H60.5613C60.5667 32.8361 60.6996 33.3844 60.6996 34.319C60.6996 38.8404 57.4323 41.8982 52.969 41.8982C47.894 41.8982 44.4471 37.7723 44.4471 33.541C44.4471 29.2228 48.1116 25.2249 52.8482 25.225C56.5681 25.225 58.6077 27.4955 58.6077 27.4955L57.0186 29.1411C57.0186 29.1411 55.5025 27.5008 52.9294 27.5008C49.5946 27.5008 46.9348 30.1463 46.9348 33.5814C46.9348 37.1075 49.725 39.6235 52.9225 39.6235C55.4217 39.6235 58.0694 38.2662 58.3375 35.0838H52.9134V32.8144ZM61.6756 36.4858C61.6756 33.6242 63.9245 31.1708 67.063 31.1708C69.6425 31.1708 72.4399 32.9988 72.4399 36.5481C72.4399 39.6447 70.035 41.8884 67.0995 41.8884C63.8568 41.8884 61.6756 39.3894 61.6756 36.4858ZM78.9057 31.1708C75.7675 31.1708 73.5184 33.6242 73.5184 36.4858C73.5184 39.3894 75.6998 41.8884 78.9426 41.8884C81.8779 41.8884 84.2828 39.6447 84.2828 36.5481C84.2828 32.9988 81.4856 31.1708 78.9057 31.1708ZM70.0993 36.5339C70.0993 34.5234 68.637 33.2756 67.0936 33.2756V33.2758C65.3596 33.2758 64.0269 34.662 64.0269 36.5182C64.0269 38.4152 65.3763 39.785 67.0865 39.785C68.643 39.785 70.0993 38.5016 70.0993 36.5339ZM78.9373 33.2756C80.4805 33.2756 81.943 34.5234 81.943 36.5339C81.943 38.5016 80.4867 39.785 78.9301 39.785C77.22 39.785 75.8708 38.4152 75.8708 36.5182C75.8708 34.662 77.2031 33.2758 78.9373 33.2758V33.2756ZM85.3621 36.5309C85.3621 33.6993 87.6266 31.1765 90.5068 31.1765V31.1767C91.7609 31.1767 92.7056 31.6618 93.3963 32.4063V31.4987H95.6431V41.1279C95.6431 44.9113 93.4603 46.7148 90.5962 46.7148C87.978 46.7148 86.5072 45.105 85.7764 43.5593L87.8361 42.6982C88.1213 43.3888 88.9424 44.6065 90.5792 44.6065C92.2736 44.6065 93.3962 43.4988 93.3962 41.65V40.5933C92.7967 41.2891 91.9847 41.8955 90.4572 41.8955C87.9871 41.8955 85.3621 39.7565 85.3621 36.5309ZM90.7153 33.2771C92.1276 33.2771 93.5779 34.483 93.5779 36.5423C93.5779 38.6355 92.1307 39.789 90.6842 39.789C89.1487 39.789 87.7197 38.5422 87.7197 36.5622C87.7197 34.5049 89.2038 33.2771 90.7153 33.2771ZM101.107 36.5154C101.107 33.3254 103.389 31.1636 106.106 31.1636L106.106 31.1639C108.249 31.1639 109.868 32.5929 110.562 34.304L110.935 35.1778L103.75 38.1593C104.179 38.9583 104.872 39.7833 106.378 39.7835C107.719 39.7835 108.523 39.0543 109.004 38.3081L110.856 39.5408C110.025 40.6522 108.634 41.8925 106.367 41.8925C103.65 41.8925 101.107 39.8907 101.107 36.5154ZM106.199 33.2247C107.178 33.2247 107.883 33.7451 108.182 34.3693L103.384 36.3749C103.177 34.8222 104.648 33.2247 106.199 33.2247H106.199ZM99.8052 41.5744H97.4449V25.7792H99.8052V41.5744ZM129.09 41.5744H131.45V25.7792H129.09V41.5744ZM118.933 41.5744H116.573V35.8426V25.7792V25.7791H122.282C125.05 25.7791 127.314 28.0433 127.314 30.8109C127.314 33.5784 125.05 35.8426 122.282 35.8426H118.933V41.5744ZM118.933 33.4824V28.1393H122.282C123.747 28.1393 124.954 29.3461 124.954 30.8109C124.954 32.2757 123.747 33.4824 122.282 33.4824H118.933ZM148.876 46.7148L155.711 31.1639H153.133L150.04 38.2019L146.947 31.1639H144.369L148.751 41.135L146.299 46.7148H148.876ZM141.11 41.5744H143.47V35.8935C143.839 30.0345 136.411 28.6565 133.6 32.8802L135.5 34.1546C136.874 31.7519 140.796 32.3048 141.054 34.8797C139.875 34.5675 138.602 34.3412 137.438 34.4589C135.623 34.6426 134.068 35.7958 133.821 37.6846C133.687 38.7052 133.915 39.9633 134.628 40.73C135.738 41.9246 137.561 42.0856 139.059 41.6774C139.902 41.4476 140.566 40.9466 141.11 40.2994V41.5744ZM138.498 39.6186C139.79 39.2668 140.808 38.3219 141.11 37.0084C140.449 36.7946 139.842 36.622 139.145 36.5379C135.09 35.9282 135.769 40.3626 138.498 39.6186ZM67.5574 20.1553H66.4833V12.9671H67.5574V20.1553ZM60.468 20.1553H61.5422V14.0411H63.3053V12.9671H58.7049V14.0411H60.468V20.1553ZM57.5724 20.1553H53.4531V12.9671H57.5724V14.0411H54.5273V16.0242H57.2058V17.0982H54.5273V19.0811H57.5724V20.1553ZM71.2686 20.1553V14.0411H73.0317V12.9671H68.4315V14.0411H70.1946V20.1553H71.2686ZM75.7958 16.4992C75.7958 14.534 77.4635 12.7148 79.6191 12.7148C81.7748 12.7148 83.4424 14.534 83.4424 16.4992C83.4424 18.4095 81.8986 20.2723 79.6191 20.3018C77.3397 20.2723 75.7958 18.4095 75.7958 16.4992ZM79.6187 19.267C78.1777 19.2493 76.9276 18.1101 76.9276 16.5177C76.9276 14.9673 78.1185 13.7703 79.6187 13.751C81.1191 13.7703 82.3099 14.9673 82.3099 16.5177C82.3099 18.1101 81.0597 19.2493 79.6187 19.267ZM85.5898 20.1553H84.5156V12.9671H85.5898L89.0378 18.2004V12.9671H90.112V20.1553H89.0396L85.5898 14.9193V20.1553ZM15.5958 21.6808L27.7318 33.7986L15.6541 46.0227C15.3016 45.7988 15.1127 45.3138 15.1095 44.6873L15 22.9914C14.9967 22.3054 15.2462 21.8869 15.5958 21.6808ZM16.9759 21.6971L31.7334 29.7484L28.2334 33.2904L16.4609 21.5353C16.6393 21.5587 16.8183 21.6111 16.9759 21.6971ZM32.39 37.4404L28.7394 33.7951L32.3863 30.1043L37.4086 32.844C38.6458 33.5186 38.013 34.3626 37.4086 34.6933L32.39 37.4404ZM16.9763 45.8762C16.8649 45.9385 16.7574 45.9874 16.6545 46.0261L28.2374 34.3033L31.7368 37.7976L16.9763 45.8762Z" fill="#FEFEFE"/>
</g>
</svg>
